<mxfile host="app.diagrams.net" modified="2022-09-26T07:34:51.190Z" agent="5.0 (Windows NT 10.0; Win64; x64) AppleWebKit/537.36 (KHTML, like Gecko) Chrome/105.0.0.0 Safari/537.36" etag="dF_P1LkUJlGDwqh4zE0-" version="20.3.6" type="github">
  <diagram id="j_5iAUrazj12X7l9guB0" name="第 1 页">
    <mxGraphModel dx="677" dy="374" grid="1" gridSize="10" guides="1" tooltips="1" connect="1" arrows="1" fold="1" page="1" pageScale="1" pageWidth="1169" pageHeight="827" math="0" shadow="0">
      <root>
        <mxCell id="0" />
        <mxCell id="1" parent="0" />
        <mxCell id="pdaWa0c2gKY5ocv-gkP8-1" value="sha1_w" style="whiteSpace=wrap;html=1;aspect=fixed;fillColor=#ffe6cc;strokeColor=#d79b00;" vertex="1" parent="1">
          <mxGeometry x="320" y="100" width="140" height="140" as="geometry" />
        </mxCell>
        <mxCell id="pdaWa0c2gKY5ocv-gkP8-3" value="" style="endArrow=classic;html=1;rounded=0;strokeWidth=2;strokeColor=#82b366;fillColor=#d5e8d4;" edge="1" parent="1">
          <mxGeometry width="50" height="50" relative="1" as="geometry">
            <mxPoint x="240" y="130" as="sourcePoint" />
            <mxPoint x="320" y="130" as="targetPoint" />
          </mxGeometry>
        </mxCell>
        <mxCell id="pdaWa0c2gKY5ocv-gkP8-7" value="clk" style="edgeLabel;html=1;align=center;verticalAlign=middle;resizable=0;points=[];" vertex="1" connectable="0" parent="pdaWa0c2gKY5ocv-gkP8-3">
          <mxGeometry x="-0.1274" y="2" relative="1" as="geometry">
            <mxPoint as="offset" />
          </mxGeometry>
        </mxCell>
        <mxCell id="pdaWa0c2gKY5ocv-gkP8-4" value="" style="endArrow=classic;html=1;rounded=0;strokeWidth=2;fillColor=#d5e8d4;strokeColor=#82b366;" edge="1" parent="1">
          <mxGeometry width="50" height="50" relative="1" as="geometry">
            <mxPoint x="240" y="159.76" as="sourcePoint" />
            <mxPoint x="320.0000000000001" y="159.76" as="targetPoint" />
          </mxGeometry>
        </mxCell>
        <mxCell id="pdaWa0c2gKY5ocv-gkP8-8" value="rst_n" style="edgeLabel;html=1;align=center;verticalAlign=middle;resizable=0;points=[];" vertex="1" connectable="0" parent="pdaWa0c2gKY5ocv-gkP8-4">
          <mxGeometry x="-0.1274" y="-1" relative="1" as="geometry">
            <mxPoint as="offset" />
          </mxGeometry>
        </mxCell>
        <mxCell id="pdaWa0c2gKY5ocv-gkP8-5" value="" style="endArrow=classic;html=1;rounded=0;strokeWidth=2;" edge="1" parent="1">
          <mxGeometry width="50" height="50" relative="1" as="geometry">
            <mxPoint x="240" y="190" as="sourcePoint" />
            <mxPoint x="320.0000000000001" y="190" as="targetPoint" />
          </mxGeometry>
        </mxCell>
        <mxCell id="pdaWa0c2gKY5ocv-gkP8-9" value="d_in" style="edgeLabel;html=1;align=center;verticalAlign=middle;resizable=0;points=[];" vertex="1" connectable="0" parent="pdaWa0c2gKY5ocv-gkP8-5">
          <mxGeometry x="-0.1512" y="-1" relative="1" as="geometry">
            <mxPoint as="offset" />
          </mxGeometry>
        </mxCell>
        <mxCell id="pdaWa0c2gKY5ocv-gkP8-6" value="" style="endArrow=classic;html=1;rounded=0;strokeWidth=1;strokeColor=#3399FF;" edge="1" parent="1">
          <mxGeometry width="50" height="50" relative="1" as="geometry">
            <mxPoint x="240" y="220" as="sourcePoint" />
            <mxPoint x="320.0000000000001" y="220" as="targetPoint" />
          </mxGeometry>
        </mxCell>
        <mxCell id="pdaWa0c2gKY5ocv-gkP8-13" value="t" style="edgeLabel;html=1;align=center;verticalAlign=middle;resizable=0;points=[];" vertex="1" connectable="0" parent="pdaWa0c2gKY5ocv-gkP8-6">
          <mxGeometry x="-0.1393" y="1" relative="1" as="geometry">
            <mxPoint as="offset" />
          </mxGeometry>
        </mxCell>
        <mxCell id="pdaWa0c2gKY5ocv-gkP8-11" value="" style="endArrow=classic;html=1;rounded=0;strokeWidth=2;" edge="1" parent="1">
          <mxGeometry width="50" height="50" relative="1" as="geometry">
            <mxPoint x="460" y="169.66" as="sourcePoint" />
            <mxPoint x="540.0000000000001" y="169.66" as="targetPoint" />
          </mxGeometry>
        </mxCell>
        <mxCell id="pdaWa0c2gKY5ocv-gkP8-12" value="w" style="edgeLabel;html=1;align=center;verticalAlign=middle;resizable=0;points=[];" vertex="1" connectable="0" parent="pdaWa0c2gKY5ocv-gkP8-11">
          <mxGeometry x="-0.1512" y="-1" relative="1" as="geometry">
            <mxPoint as="offset" />
          </mxGeometry>
        </mxCell>
        <mxCell id="pdaWa0c2gKY5ocv-gkP8-14" value="sha1_round" style="whiteSpace=wrap;html=1;aspect=fixed;fillColor=#ffe6cc;strokeColor=#d79b00;" vertex="1" parent="1">
          <mxGeometry x="320" y="290" width="140" height="140" as="geometry" />
        </mxCell>
        <mxCell id="pdaWa0c2gKY5ocv-gkP8-15" value="" style="endArrow=classic;html=1;rounded=0;strokeWidth=2;fillColor=#d5e8d4;strokeColor=#82b366;" edge="1" parent="1">
          <mxGeometry width="50" height="50" relative="1" as="geometry">
            <mxPoint x="240" y="300" as="sourcePoint" />
            <mxPoint x="320" y="300" as="targetPoint" />
          </mxGeometry>
        </mxCell>
        <mxCell id="pdaWa0c2gKY5ocv-gkP8-16" value="clk" style="edgeLabel;html=1;align=center;verticalAlign=middle;resizable=0;points=[];" vertex="1" connectable="0" parent="pdaWa0c2gKY5ocv-gkP8-15">
          <mxGeometry x="-0.1274" y="2" relative="1" as="geometry">
            <mxPoint as="offset" />
          </mxGeometry>
        </mxCell>
        <mxCell id="pdaWa0c2gKY5ocv-gkP8-17" value="" style="endArrow=classic;html=1;rounded=0;strokeWidth=2;fillColor=#d5e8d4;strokeColor=#82b366;" edge="1" parent="1">
          <mxGeometry width="50" height="50" relative="1" as="geometry">
            <mxPoint x="240" y="320" as="sourcePoint" />
            <mxPoint x="320" y="320" as="targetPoint" />
          </mxGeometry>
        </mxCell>
        <mxCell id="pdaWa0c2gKY5ocv-gkP8-18" value="rst_n" style="edgeLabel;html=1;align=center;verticalAlign=middle;resizable=0;points=[];" vertex="1" connectable="0" parent="pdaWa0c2gKY5ocv-gkP8-17">
          <mxGeometry x="-0.1274" y="-1" relative="1" as="geometry">
            <mxPoint as="offset" />
          </mxGeometry>
        </mxCell>
        <mxCell id="pdaWa0c2gKY5ocv-gkP8-19" value="" style="endArrow=classic;html=1;rounded=0;strokeWidth=2;" edge="1" parent="1">
          <mxGeometry width="50" height="50" relative="1" as="geometry">
            <mxPoint x="240" y="340" as="sourcePoint" />
            <mxPoint x="320" y="340" as="targetPoint" />
          </mxGeometry>
        </mxCell>
        <mxCell id="pdaWa0c2gKY5ocv-gkP8-20" value="r_in" style="edgeLabel;html=1;align=center;verticalAlign=middle;resizable=0;points=[];" vertex="1" connectable="0" parent="pdaWa0c2gKY5ocv-gkP8-19">
          <mxGeometry x="-0.1512" y="-1" relative="1" as="geometry">
            <mxPoint as="offset" />
          </mxGeometry>
        </mxCell>
        <mxCell id="pdaWa0c2gKY5ocv-gkP8-21" value="" style="endArrow=classic;html=1;rounded=0;strokeWidth=1;strokeColor=#3399FF;" edge="1" parent="1">
          <mxGeometry width="50" height="50" relative="1" as="geometry">
            <mxPoint x="240" y="380" as="sourcePoint" />
            <mxPoint x="320" y="380" as="targetPoint" />
          </mxGeometry>
        </mxCell>
        <mxCell id="pdaWa0c2gKY5ocv-gkP8-22" value="t" style="edgeLabel;html=1;align=center;verticalAlign=middle;resizable=0;points=[];" vertex="1" connectable="0" parent="pdaWa0c2gKY5ocv-gkP8-21">
          <mxGeometry x="-0.1393" y="1" relative="1" as="geometry">
            <mxPoint as="offset" />
          </mxGeometry>
        </mxCell>
        <mxCell id="pdaWa0c2gKY5ocv-gkP8-23" value="" style="endArrow=classic;html=1;rounded=0;strokeWidth=2;" edge="1" parent="1">
          <mxGeometry width="50" height="50" relative="1" as="geometry">
            <mxPoint x="460" y="359.65999999999997" as="sourcePoint" />
            <mxPoint x="540" y="359.65999999999997" as="targetPoint" />
          </mxGeometry>
        </mxCell>
        <mxCell id="pdaWa0c2gKY5ocv-gkP8-24" value="r_our" style="edgeLabel;html=1;align=center;verticalAlign=middle;resizable=0;points=[];" vertex="1" connectable="0" parent="pdaWa0c2gKY5ocv-gkP8-23">
          <mxGeometry x="-0.1512" y="-1" relative="1" as="geometry">
            <mxPoint as="offset" />
          </mxGeometry>
        </mxCell>
        <mxCell id="pdaWa0c2gKY5ocv-gkP8-25" value="" style="endArrow=classic;html=1;rounded=0;strokeWidth=2;" edge="1" parent="1">
          <mxGeometry width="50" height="50" relative="1" as="geometry">
            <mxPoint x="240" y="359.66000000000014" as="sourcePoint" />
            <mxPoint x="320" y="359.66000000000014" as="targetPoint" />
          </mxGeometry>
        </mxCell>
        <mxCell id="pdaWa0c2gKY5ocv-gkP8-26" value="w" style="edgeLabel;html=1;align=center;verticalAlign=middle;resizable=0;points=[];" vertex="1" connectable="0" parent="pdaWa0c2gKY5ocv-gkP8-25">
          <mxGeometry x="-0.1512" y="-1" relative="1" as="geometry">
            <mxPoint as="offset" />
          </mxGeometry>
        </mxCell>
        <mxCell id="pdaWa0c2gKY5ocv-gkP8-28" value="" style="endArrow=none;html=1;rounded=0;strokeColor=#000000;strokeWidth=1;" edge="1" parent="1">
          <mxGeometry width="50" height="50" relative="1" as="geometry">
            <mxPoint x="240" y="360" as="sourcePoint" />
            <mxPoint x="540" y="170" as="targetPoint" />
            <Array as="points">
              <mxPoint x="210" y="360" />
              <mxPoint x="210" y="260" />
              <mxPoint x="540" y="260" />
            </Array>
          </mxGeometry>
        </mxCell>
        <mxCell id="pdaWa0c2gKY5ocv-gkP8-29" value="sha1_control" style="whiteSpace=wrap;html=1;aspect=fixed;fillColor=#ffe6cc;strokeColor=#d79b00;" vertex="1" parent="1">
          <mxGeometry x="320" y="460" width="140" height="140" as="geometry" />
        </mxCell>
        <mxCell id="pdaWa0c2gKY5ocv-gkP8-30" value="" style="endArrow=classic;html=1;rounded=0;strokeWidth=2;fillColor=#d5e8d4;strokeColor=#82b366;" edge="1" parent="1">
          <mxGeometry width="50" height="50" relative="1" as="geometry">
            <mxPoint x="240" y="470" as="sourcePoint" />
            <mxPoint x="320.0000000000001" y="470" as="targetPoint" />
          </mxGeometry>
        </mxCell>
        <mxCell id="pdaWa0c2gKY5ocv-gkP8-31" value="clk" style="edgeLabel;html=1;align=center;verticalAlign=middle;resizable=0;points=[];" vertex="1" connectable="0" parent="pdaWa0c2gKY5ocv-gkP8-30">
          <mxGeometry x="-0.1274" y="2" relative="1" as="geometry">
            <mxPoint as="offset" />
          </mxGeometry>
        </mxCell>
        <mxCell id="pdaWa0c2gKY5ocv-gkP8-32" value="" style="endArrow=classic;html=1;rounded=0;strokeWidth=2;fillColor=#d5e8d4;strokeColor=#82b366;" edge="1" parent="1">
          <mxGeometry width="50" height="50" relative="1" as="geometry">
            <mxPoint x="240" y="490" as="sourcePoint" />
            <mxPoint x="320.0000000000001" y="490" as="targetPoint" />
          </mxGeometry>
        </mxCell>
        <mxCell id="pdaWa0c2gKY5ocv-gkP8-33" value="rst_n" style="edgeLabel;html=1;align=center;verticalAlign=middle;resizable=0;points=[];" vertex="1" connectable="0" parent="pdaWa0c2gKY5ocv-gkP8-32">
          <mxGeometry x="-0.1274" y="-1" relative="1" as="geometry">
            <mxPoint as="offset" />
          </mxGeometry>
        </mxCell>
        <mxCell id="pdaWa0c2gKY5ocv-gkP8-34" value="" style="endArrow=classic;html=1;rounded=0;strokeWidth=2;" edge="1" parent="1">
          <mxGeometry width="50" height="50" relative="1" as="geometry">
            <mxPoint x="240" y="510" as="sourcePoint" />
            <mxPoint x="320.0000000000001" y="510" as="targetPoint" />
          </mxGeometry>
        </mxCell>
        <mxCell id="pdaWa0c2gKY5ocv-gkP8-35" value="r_in" style="edgeLabel;html=1;align=center;verticalAlign=middle;resizable=0;points=[];" vertex="1" connectable="0" parent="pdaWa0c2gKY5ocv-gkP8-34">
          <mxGeometry x="-0.1512" y="-1" relative="1" as="geometry">
            <mxPoint as="offset" />
          </mxGeometry>
        </mxCell>
        <mxCell id="pdaWa0c2gKY5ocv-gkP8-36" value="" style="endArrow=classic;html=1;rounded=0;strokeWidth=1;strokeColor=#3399FF;" edge="1" parent="1">
          <mxGeometry width="50" height="50" relative="1" as="geometry">
            <mxPoint x="240" y="550" as="sourcePoint" />
            <mxPoint x="320.0000000000001" y="550" as="targetPoint" />
          </mxGeometry>
        </mxCell>
        <mxCell id="pdaWa0c2gKY5ocv-gkP8-37" value="t" style="edgeLabel;html=1;align=center;verticalAlign=middle;resizable=0;points=[];" vertex="1" connectable="0" parent="pdaWa0c2gKY5ocv-gkP8-36">
          <mxGeometry x="-0.1393" y="1" relative="1" as="geometry">
            <mxPoint as="offset" />
          </mxGeometry>
        </mxCell>
        <mxCell id="pdaWa0c2gKY5ocv-gkP8-38" value="" style="endArrow=classic;html=1;rounded=0;strokeWidth=2;" edge="1" parent="1">
          <mxGeometry width="50" height="50" relative="1" as="geometry">
            <mxPoint x="460" y="529.66" as="sourcePoint" />
            <mxPoint x="540" y="529.66" as="targetPoint" />
          </mxGeometry>
        </mxCell>
        <mxCell id="pdaWa0c2gKY5ocv-gkP8-39" value="t" style="edgeLabel;html=1;align=center;verticalAlign=middle;resizable=0;points=[];" vertex="1" connectable="0" parent="pdaWa0c2gKY5ocv-gkP8-38">
          <mxGeometry x="-0.1512" y="-1" relative="1" as="geometry">
            <mxPoint as="offset" />
          </mxGeometry>
        </mxCell>
        <mxCell id="pdaWa0c2gKY5ocv-gkP8-40" value="" style="endArrow=classic;html=1;rounded=0;strokeWidth=2;" edge="1" parent="1">
          <mxGeometry width="50" height="50" relative="1" as="geometry">
            <mxPoint x="240" y="529.6600000000001" as="sourcePoint" />
            <mxPoint x="320.0000000000001" y="529.6600000000001" as="targetPoint" />
          </mxGeometry>
        </mxCell>
        <mxCell id="pdaWa0c2gKY5ocv-gkP8-41" value="w" style="edgeLabel;html=1;align=center;verticalAlign=middle;resizable=0;points=[];" vertex="1" connectable="0" parent="pdaWa0c2gKY5ocv-gkP8-40">
          <mxGeometry x="-0.1512" y="-1" relative="1" as="geometry">
            <mxPoint as="offset" />
          </mxGeometry>
        </mxCell>
      </root>
    </mxGraphModel>
  </diagram>
</mxfile>
